<?xml version="1.0" encoding="UTF-8" standalone="no"?>
<!-- Created with Inkscape (http://www.inkscape.org/) -->

<svg
   xmlns:dc="http://purl.org/dc/elements/1.1/"
   xmlns:cc="http://creativecommons.org/ns#"
   xmlns:rdf="http://www.w3.org/1999/02/22-rdf-syntax-ns#"
   xmlns:svg="http://www.w3.org/2000/svg"
   xmlns="http://www.w3.org/2000/svg"
   xmlns:sodipodi="http://sodipodi.sourceforge.net/DTD/sodipodi-0.dtd"
   xmlns:inkscape="http://www.inkscape.org/namespaces/inkscape"
   version="1.1"
   width="256"
   height="406"
   id="svg2"
   xml:space="preserve"
   inkscape:version="0.48.4 r9939"
   sodipodi:docname="SMjs.svg"><sodipodi:namedview
     pagecolor="#ffffff"
     bordercolor="#666666"
     borderopacity="1"
     objecttolerance="10"
     gridtolerance="10"
     guidetolerance="10"
     inkscape:pageopacity="0"
     inkscape:pageshadow="2"
     inkscape:window-width="1920"
     inkscape:window-height="1012"
     id="namedview8"
     showgrid="false"
     inkscape:zoom="0.67425131"
     inkscape:cx="321.6125"
     inkscape:cy="235.45339"
     inkscape:window-x="-8"
     inkscape:window-y="-8"
     inkscape:window-maximized="1"
     inkscape:current-layer="svg2" /><metadata
     id="metadata8"><rdf:RDF><cc:Work
         rdf:about=""><dc:format>image/svg+xml</dc:format><dc:type
           rdf:resource="http://purl.org/dc/dcmitype/StillImage" /><dc:title /></cc:Work></rdf:RDF></metadata><defs
     id="defs6" /><g
     transform="matrix(1.25,0,0,-1.25,38.125,367.875)"
     id="g10"><g
       transform="scale(0.1,0.1)"
       id="g12"><path
         d="m 520,2420 1100,400 -900,0 L 141.492,1409.44 C -62.3008,1238.44 -180,986.031 -180,720 c 0,-497.055 402.945,-900 900,-900 497.05,0 900,402.945 900,900 0,497.05 -402.95,900 -900,900 -211.59,0 -416.422,-74.55 -578.508,-210.56"
         inkscape:connector-curvature="0"
         id="path14"
         style="fill:none;stroke:#000000;stroke-width:250;stroke-linecap:round;stroke-linejoin:miter;stroke-miterlimit:10;stroke-opacity:1;stroke-dasharray:none" /></g></g><g
     id="g2985"
     transform="matrix(1.25,0,0,-1.25,38.125,367.875)"><g
       id="g2987"
       transform="scale(0.1,0.1)"><path
         style="fill:none;stroke:#000000;stroke-width:250;stroke-linecap:round;stroke-linejoin:miter;stroke-miterlimit:10;stroke-opacity:1;stroke-dasharray:none"
         id="path2989"
         inkscape:connector-curvature="0"
         d="m 520,2420 1100,400 -900,0 L 141.492,1409.44 C -62.3008,1238.44 -180,986.031 -180,720 c 0,-497.055 402.945,-900 900,-900 497.05,0 900,402.945 900,900 0,497.05 -402.95,900 -900,900 -211.59,0 -416.422,-74.55 -578.508,-210.56" /></g></g></svg>