<?xml version="1.0" encoding="UTF-8" standalone="no"?>
<!-- Created with Inkscape (http://www.inkscape.org/) -->

<svg
   xmlns:dc="http://purl.org/dc/elements/1.1/"
   xmlns:cc="http://creativecommons.org/ns#"
   xmlns:rdf="http://www.w3.org/1999/02/22-rdf-syntax-ns#"
   xmlns:svg="http://www.w3.org/2000/svg"
   xmlns="http://www.w3.org/2000/svg"
   xmlns:sodipodi="http://sodipodi.sourceforge.net/DTD/sodipodi-0.dtd"
   xmlns:inkscape="http://www.inkscape.org/namespaces/inkscape"
   version="1.1"
   width="200"
   height="200"
   id="svg2"
   xml:space="preserve"
   inkscape:version="0.48.4 r9939"
   sodipodi:docname="Svo.svg"><sodipodi:namedview
     pagecolor="#ffffff"
     bordercolor="#666666"
     borderopacity="1"
     objecttolerance="10"
     gridtolerance="10"
     guidetolerance="10"
     inkscape:pageopacity="0"
     inkscape:pageshadow="2"
     inkscape:window-width="1920"
     inkscape:window-height="1012"
     id="namedview9"
     showgrid="false"
     inkscape:zoom="1.3485026"
     inkscape:cx="26.764067"
     inkscape:cy="108.08456"
     inkscape:window-x="-8"
     inkscape:window-y="-8"
     inkscape:window-maximized="1"
     inkscape:current-layer="g12" /><metadata
     id="metadata8"><rdf:RDF><cc:Work
         rdf:about=""><dc:format>image/svg+xml</dc:format><dc:type
           rdf:resource="http://purl.org/dc/dcmitype/StillImage" /><dc:title></dc:title></cc:Work></rdf:RDF></metadata><defs
     id="defs6" /><g
     style="stroke:#000000;stroke-opacity:1"
     id="g12"
     transform="matrix(0.125,0,0,-0.125,10.0625,189.9375)"><path
       style="fill:#231f20;fill-opacity:1;fill-rule:nonzero;stroke:#000000;stroke-opacity:1"
       id="path14"
       inkscape:connector-curvature="0"
       d="m 720,720 800,0 c 0,441.82 -358.18,800 -800,800 -441.824,0 -800,-358.18 -800,-800 0,-441.824 358.176,-800 800,-800 441.82,0 800,358.176 800,800" /><path
       style="fill:#0080ff;fill-opacity:1;fill-rule:nonzero;stroke:#000000;stroke-opacity:1"
       id="path16"
       inkscape:connector-curvature="0"
       d="m 1270,720 c 0,303.75 -246.25,550 -550,550 -303.754,0 -550,-246.25 -550,-550 0,-303.754 246.246,-550 550,-550 303.75,0 550,246.246 550,550" /></g></svg>