<?xml version="1.0" encoding="UTF-8" standalone="no"?>
<!-- Created with Inkscape (http://www.inkscape.org/) -->

<svg
   xmlns:dc="http://purl.org/dc/elements/1.1/"
   xmlns:cc="http://creativecommons.org/ns#"
   xmlns:rdf="http://www.w3.org/1999/02/22-rdf-syntax-ns#"
   xmlns:svg="http://www.w3.org/2000/svg"
   xmlns="http://www.w3.org/2000/svg"
   xmlns:sodipodi="http://sodipodi.sourceforge.net/DTD/sodipodi-0.dtd"
   xmlns:inkscape="http://www.inkscape.org/namespaces/inkscape"
   version="1.1"
   width="2400"
   height="2400"
   id="svg2"
   xml:space="preserve"
   inkscape:version="0.48.4 r9939"
   sodipodi:docname="Pkivikko_0_0_0_60.svg"><sodipodi:namedview
     pagecolor="#ffffff"
     bordercolor="#666666"
     borderopacity="1"
     objecttolerance="10"
     gridtolerance="10"
     guidetolerance="10"
     inkscape:pageopacity="0"
     inkscape:pageshadow="2"
     inkscape:window-width="1920"
     inkscape:window-height="1012"
     id="namedview16"
     showgrid="false"
     inkscape:zoom="0.34375"
     inkscape:cx="734.54545"
     inkscape:cy="1200"
     inkscape:window-x="-8"
     inkscape:window-y="-8"
     inkscape:window-maximized="1"
     inkscape:current-layer="svg2" /><metadata
     id="metadata8"><rdf:RDF><cc:Work
         rdf:about=""><dc:format>image/svg+xml</dc:format><dc:type
           rdf:resource="http://purl.org/dc/dcmitype/StillImage" /><dc:title></dc:title></cc:Work></rdf:RDF></metadata><defs
     id="defs6" /><path
     d="m 48.699,2311.575 51.7798,-139.8054 88.02565,93.2036 L 48.699,2311.575"
     inkscape:connector-curvature="0"
     id="path14"
     style="fill:#000000;fill-opacity:1;fill-rule:nonzero;stroke:#000000;stroke-opacity:1" /><path
     d="M 1.9144431,2156.644 22.73882,2010.8734 121.6546,2114.9952 1.9144431,2156.644"
     inkscape:connector-curvature="0"
     id="path16"
     style="fill:#000000;fill-opacity:1;fill-rule:nonzero;stroke:#000000;stroke-opacity:1" /><path
     d="M 41.781519,1965.723 144.57248,1862.932 190.8284,1981.1416 41.781519,1965.723"
     inkscape:connector-curvature="0"
     id="path18"
     style="fill:#000000;fill-opacity:1;fill-rule:nonzero;stroke:#000000;stroke-opacity:1" /><path
     d="m 212.1413,2264.4212 143.94629,46.2684 -92.5369,87.396 -51.40939,-133.6644"
     inkscape:connector-curvature="0"
     id="path20"
     style="fill:#000000;fill-opacity:1;fill-rule:nonzero;stroke:#000000;stroke-opacity:1" /><path
     d="m 231.438,2200.342 74.43468,-116.9688 74.43468,101.0185 -148.86936,15.9503"
     inkscape:connector-curvature="0"
     id="path22"
     style="fill:#000000;fill-opacity:1;fill-rule:nonzero;stroke:#000000;stroke-opacity:1" /><path
     d="M 277.65667,1977.877 267.192,1831.3717 382.30329,1883.6951 277.65667,1977.877"
     inkscape:connector-curvature="0"
     id="path24"
     style="fill:#000000;fill-opacity:1;fill-rule:nonzero;stroke:#000000;stroke-opacity:1" /><path
     d="M 438.014,2325.9581 512.81231,2219.1033 587.61064,2347.329 438.014,2325.9581"
     inkscape:connector-curvature="0"
     id="path26"
     style="fill:#000000;fill-opacity:1;fill-rule:nonzero;stroke:#000000;stroke-opacity:1" /><path
     d="m 457.80868,2126.3157 -62.04093,-113.7417 149.93227,0 -87.89134,113.7417"
     inkscape:connector-curvature="0"
     id="path28"
     style="fill:#000000;fill-opacity:1;fill-rule:nonzero;stroke:#000000;stroke-opacity:1" /><path
     d="m 459.21823,1908.3636 97.56302,-102.9832 43.36134,113.8235 -140.92436,-10.8403"
     inkscape:connector-curvature="0"
     id="path30"
     style="fill:#000000;fill-opacity:1;fill-rule:nonzero;stroke:#000000;stroke-opacity:1" /><path
     style="fill:#000000;fill-opacity:1;fill-rule:nonzero;stroke:#000000;stroke-opacity:1"
     id="path3044"
     inkscape:connector-curvature="0"
     d="m 48.699,1708.3894 51.7798,-139.8054 88.02565,93.2036 -139.80545,46.6018" /><path
     style="fill:#000000;fill-opacity:1;fill-rule:nonzero;stroke:#000000;stroke-opacity:1"
     id="path3046"
     inkscape:connector-curvature="0"
     d="M 1.9144431,1553.4584 22.73882,1407.6878 121.6546,1511.8096 1.9144431,1553.4584" /><path
     style="fill:#000000;fill-opacity:1;fill-rule:nonzero;stroke:#000000;stroke-opacity:1"
     id="path3048"
     inkscape:connector-curvature="0"
     d="M 41.781519,1362.5374 144.57248,1259.7464 190.8284,1377.956 41.781519,1362.5374" /><path
     style="fill:#000000;fill-opacity:1;fill-rule:nonzero;stroke:#000000;stroke-opacity:1"
     id="path3050"
     inkscape:connector-curvature="0"
     d="m 212.1413,1661.2356 143.94629,46.2684 -92.5369,87.396 -51.40939,-133.6644" /><path
     style="fill:#000000;fill-opacity:1;fill-rule:nonzero;stroke:#000000;stroke-opacity:1"
     id="path3052"
     inkscape:connector-curvature="0"
     d="m 231.438,1597.1564 74.43468,-116.9688 74.43468,101.0185 -148.86936,15.9503" /><path
     style="fill:#000000;fill-opacity:1;fill-rule:nonzero;stroke:#000000;stroke-opacity:1"
     id="path3054"
     inkscape:connector-curvature="0"
     d="m 277.65667,1374.6914 -10.46467,-146.5053 115.11129,52.3234 -104.64662,94.1819" /><path
     style="fill:#000000;fill-opacity:1;fill-rule:nonzero;stroke:#000000;stroke-opacity:1"
     id="path3056"
     inkscape:connector-curvature="0"
     d="m 438.014,1722.7725 74.79831,-106.8548 74.79833,128.2257 -149.59664,-21.3709" /><path
     style="fill:#000000;fill-opacity:1;fill-rule:nonzero;stroke:#000000;stroke-opacity:1"
     id="path3058"
     inkscape:connector-curvature="0"
     d="m 457.80868,1523.1302 -62.04093,-113.7418 149.93227,0 -87.89134,113.7418" /><path
     style="fill:#000000;fill-opacity:1;fill-rule:nonzero;stroke:#000000;stroke-opacity:1"
     id="path3060"
     inkscape:connector-curvature="0"
     d="m 459.21823,1305.178 97.56302,-102.9832 43.36134,113.8235 -140.92436,-10.8403" /><path
     style="fill:#000000;fill-opacity:1;fill-rule:nonzero;stroke:#000000;stroke-opacity:1"
     id="path3062"
     inkscape:connector-curvature="0"
     d="m 646.78456,2311.575 51.7798,-139.8054 88.02565,93.2036 -139.80545,46.6018" /><path
     style="fill:#000000;fill-opacity:1;fill-rule:nonzero;stroke:#000000;stroke-opacity:1"
     id="path3064"
     inkscape:connector-curvature="0"
     d="m 600,2156.644 20.82438,-145.7706 98.91578,104.1218 L 600,2156.644" /><path
     style="fill:#000000;fill-opacity:1;fill-rule:nonzero;stroke:#000000;stroke-opacity:1"
     id="path3066"
     inkscape:connector-curvature="0"
     d="m 639.86708,1965.723 102.79096,-102.791 46.25592,118.2096 -149.04688,-15.4186" /><path
     style="fill:#000000;fill-opacity:1;fill-rule:nonzero;stroke:#000000;stroke-opacity:1"
     id="path3068"
     inkscape:connector-curvature="0"
     d="m 810.22686,2264.4212 143.94629,46.2684 -92.5369,87.396 -51.40939,-133.6644" /><path
     style="fill:#000000;fill-opacity:1;fill-rule:nonzero;stroke:#000000;stroke-opacity:1"
     id="path3070"
     inkscape:connector-curvature="0"
     d="m 829.52356,2200.342 74.43468,-116.9688 74.43468,101.0185 -148.86936,15.9503" /><path
     style="fill:#000000;fill-opacity:1;fill-rule:nonzero;stroke:#000000;stroke-opacity:1"
     id="path3072"
     inkscape:connector-curvature="0"
     d="m 875.74223,1977.877 -10.46467,-146.5053 115.11129,52.3234 -104.64662,94.1819" /><path
     style="fill:#000000;fill-opacity:1;fill-rule:nonzero;stroke:#000000;stroke-opacity:1"
     id="path3074"
     inkscape:connector-curvature="0"
     d="m 1036.0996,2325.9581 74.7983,-106.8548 74.7983,128.2257 -149.5966,-21.3709" /><path
     style="fill:#000000;fill-opacity:1;fill-rule:nonzero;stroke:#000000;stroke-opacity:1"
     id="path3076"
     inkscape:connector-curvature="0"
     d="m 1055.8942,2126.3157 -62.04089,-113.7417 149.93229,0 -87.8914,113.7417" /><path
     style="fill:#000000;fill-opacity:1;fill-rule:nonzero;stroke:#000000;stroke-opacity:1"
     id="path3078"
     inkscape:connector-curvature="0"
     d="m 1057.3038,1908.3636 97.563,-102.9832 43.3613,113.8235 -140.9243,-10.8403" /><path
     d="m 646.78456,1708.3894 51.7798,-139.8054 88.02565,93.2036 -139.80545,46.6018"
     inkscape:connector-curvature="0"
     id="path3080"
     style="fill:#000000;fill-opacity:1;fill-rule:nonzero;stroke:#000000;stroke-opacity:1" /><path
     d="m 600,1553.4584 20.82438,-145.7706 98.91578,104.1218 L 600,1553.4584"
     inkscape:connector-curvature="0"
     id="path3082"
     style="fill:#000000;fill-opacity:1;fill-rule:nonzero;stroke:#000000;stroke-opacity:1" /><path
     d="m 639.86708,1362.5374 102.79096,-102.791 46.25592,118.2096 -149.04688,-15.4186"
     inkscape:connector-curvature="0"
     id="path3084"
     style="fill:#000000;fill-opacity:1;fill-rule:nonzero;stroke:#000000;stroke-opacity:1" /><path
     d="m 810.22686,1661.2356 143.94629,46.2684 -92.5369,87.396 -51.40939,-133.6644"
     inkscape:connector-curvature="0"
     id="path3086"
     style="fill:#000000;fill-opacity:1;fill-rule:nonzero;stroke:#000000;stroke-opacity:1" /><path
     d="m 829.52356,1597.1564 74.43468,-116.9688 74.43468,101.0185 -148.86936,15.9503"
     inkscape:connector-curvature="0"
     id="path3088"
     style="fill:#000000;fill-opacity:1;fill-rule:nonzero;stroke:#000000;stroke-opacity:1" /><path
     d="m 875.74223,1374.6914 -10.46467,-146.5053 115.11129,52.3234 -104.64662,94.1819"
     inkscape:connector-curvature="0"
     id="path3090"
     style="fill:#000000;fill-opacity:1;fill-rule:nonzero;stroke:#000000;stroke-opacity:1" /><path
     d="m 1036.0996,1722.7725 74.7983,-106.8548 74.7983,128.2257 -149.5966,-21.3709"
     inkscape:connector-curvature="0"
     id="path3092"
     style="fill:#000000;fill-opacity:1;fill-rule:nonzero;stroke:#000000;stroke-opacity:1" /><path
     d="m 1055.8942,1523.1302 -62.04089,-113.7418 149.93229,0 -87.8914,113.7418"
     inkscape:connector-curvature="0"
     id="path3094"
     style="fill:#000000;fill-opacity:1;fill-rule:nonzero;stroke:#000000;stroke-opacity:1" /><path
     d="m 1057.3038,1305.178 97.563,-102.9832 43.3613,113.8235 -140.9243,-10.8403"
     inkscape:connector-curvature="0"
     id="path3096"
     style="fill:#000000;fill-opacity:1;fill-rule:nonzero;stroke:#000000;stroke-opacity:1" /><path
     style="fill:#000000;fill-opacity:1;fill-rule:nonzero;stroke:#000000;stroke-opacity:1"
     id="path3098"
     inkscape:connector-curvature="0"
     d="m 1246.7846,2311.575 51.7798,-139.8054 88.0256,93.2036 -139.8054,46.6018" /><path
     style="fill:#000000;fill-opacity:1;fill-rule:nonzero;stroke:#000000;stroke-opacity:1"
     id="path3100"
     inkscape:connector-curvature="0"
     d="m 1200,2156.644 20.8244,-145.7706 98.9158,104.1218 L 1200,2156.644" /><path
     style="fill:#000000;fill-opacity:1;fill-rule:nonzero;stroke:#000000;stroke-opacity:1"
     id="path3102"
     inkscape:connector-curvature="0"
     d="m 1239.8671,1965.723 102.7909,-102.791 46.256,118.2096 -149.0469,-15.4186" /><path
     style="fill:#000000;fill-opacity:1;fill-rule:nonzero;stroke:#000000;stroke-opacity:1"
     id="path3104"
     inkscape:connector-curvature="0"
     d="m 1410.2269,2264.4212 143.9462,46.2684 -92.5369,87.396 -51.4093,-133.6644" /><path
     style="fill:#000000;fill-opacity:1;fill-rule:nonzero;stroke:#000000;stroke-opacity:1"
     id="path3106"
     inkscape:connector-curvature="0"
     d="m 1429.5236,2200.342 74.4346,-116.9688 74.4347,101.0185 -148.8693,15.9503" /><path
     style="fill:#000000;fill-opacity:1;fill-rule:nonzero;stroke:#000000;stroke-opacity:1"
     id="path3108"
     inkscape:connector-curvature="0"
     d="m 1475.7422,1977.877 -10.4646,-146.5053 115.1112,52.3234 -104.6466,94.1819" /><path
     style="fill:#000000;fill-opacity:1;fill-rule:nonzero;stroke:#000000;stroke-opacity:1"
     id="path3110"
     inkscape:connector-curvature="0"
     d="m 1636.0996,2325.9581 74.7983,-106.8548 74.7983,128.2257 -149.5966,-21.3709" /><path
     style="fill:#000000;fill-opacity:1;fill-rule:nonzero;stroke:#000000;stroke-opacity:1"
     id="path3112"
     inkscape:connector-curvature="0"
     d="m 1655.8942,2126.3157 -62.0409,-113.7417 149.9323,0 -87.8914,113.7417" /><path
     style="fill:#000000;fill-opacity:1;fill-rule:nonzero;stroke:#000000;stroke-opacity:1"
     id="path3114"
     inkscape:connector-curvature="0"
     d="m 1657.3038,1908.3636 97.563,-102.9832 43.3613,113.8235 -140.9243,-10.8403" /><path
     d="m 1246.7846,1708.3894 51.7798,-139.8054 88.0256,93.2036 -139.8054,46.6018"
     inkscape:connector-curvature="0"
     id="path3116"
     style="fill:#000000;fill-opacity:1;fill-rule:nonzero;stroke:#000000;stroke-opacity:1" /><path
     d="m 1200,1553.4584 20.8244,-145.7706 98.9158,104.1218 L 1200,1553.4584"
     inkscape:connector-curvature="0"
     id="path3118"
     style="fill:#000000;fill-opacity:1;fill-rule:nonzero;stroke:#000000;stroke-opacity:1" /><path
     d="m 1239.8671,1362.5374 102.7909,-102.791 46.256,118.2096 -149.0469,-15.4186"
     inkscape:connector-curvature="0"
     id="path3120"
     style="fill:#000000;fill-opacity:1;fill-rule:nonzero;stroke:#000000;stroke-opacity:1" /><path
     d="m 1410.2269,1661.2356 143.9462,46.2684 -92.5369,87.396 -51.4093,-133.6644"
     inkscape:connector-curvature="0"
     id="path3122"
     style="fill:#000000;fill-opacity:1;fill-rule:nonzero;stroke:#000000;stroke-opacity:1" /><path
     d="m 1429.5236,1597.1564 74.4346,-116.9688 74.4347,101.0185 -148.8693,15.9503"
     inkscape:connector-curvature="0"
     id="path3124"
     style="fill:#000000;fill-opacity:1;fill-rule:nonzero;stroke:#000000;stroke-opacity:1" /><path
     d="m 1475.7422,1374.6914 -10.4646,-146.5053 115.1112,52.3234 -104.6466,94.1819"
     inkscape:connector-curvature="0"
     id="path3126"
     style="fill:#000000;fill-opacity:1;fill-rule:nonzero;stroke:#000000;stroke-opacity:1" /><path
     d="m 1636.0996,1722.7725 74.7983,-106.8548 74.7983,128.2257 -149.5966,-21.3709"
     inkscape:connector-curvature="0"
     id="path3128"
     style="fill:#000000;fill-opacity:1;fill-rule:nonzero;stroke:#000000;stroke-opacity:1" /><path
     d="m 1655.8942,1523.1302 -62.0409,-113.7418 149.9323,0 -87.8914,113.7418"
     inkscape:connector-curvature="0"
     id="path3130"
     style="fill:#000000;fill-opacity:1;fill-rule:nonzero;stroke:#000000;stroke-opacity:1" /><path
     d="m 1657.3038,1305.178 97.563,-102.9832 43.3613,113.8235 -140.9243,-10.8403"
     inkscape:connector-curvature="0"
     id="path3132"
     style="fill:#000000;fill-opacity:1;fill-rule:nonzero;stroke:#000000;stroke-opacity:1" /><path
     d="m 1844.8701,2311.575 51.7798,-139.8054 88.0257,93.2036 -139.8055,46.6018"
     inkscape:connector-curvature="0"
     id="path3134"
     style="fill:#000000;fill-opacity:1;fill-rule:nonzero;stroke:#000000;stroke-opacity:1" /><path
     d="m 1798.0856,2156.644 20.8243,-145.7706 98.9158,104.1218 -119.7401,41.6488"
     inkscape:connector-curvature="0"
     id="path3136"
     style="fill:#000000;fill-opacity:1;fill-rule:nonzero;stroke:#000000;stroke-opacity:1" /><path
     d="m 1837.9526,1965.723 102.791,-102.791 46.2559,118.2096 -149.0469,-15.4186"
     inkscape:connector-curvature="0"
     id="path3138"
     style="fill:#000000;fill-opacity:1;fill-rule:nonzero;stroke:#000000;stroke-opacity:1" /><path
     d="m 2008.3124,2264.4212 143.9463,46.2684 -92.5369,87.396 -51.4094,-133.6644"
     inkscape:connector-curvature="0"
     id="path3140"
     style="fill:#000000;fill-opacity:1;fill-rule:nonzero;stroke:#000000;stroke-opacity:1" /><path
     d="m 2027.6091,2200.342 74.4347,-116.9688 74.4347,101.0185 -148.8694,15.9503"
     inkscape:connector-curvature="0"
     id="path3142"
     style="fill:#000000;fill-opacity:1;fill-rule:nonzero;stroke:#000000;stroke-opacity:1" /><path
     d="m 2073.8278,1977.877 -10.4647,-146.5053 115.1113,52.3234 -104.6466,94.1819"
     inkscape:connector-curvature="0"
     id="path3144"
     style="fill:#000000;fill-opacity:1;fill-rule:nonzero;stroke:#000000;stroke-opacity:1" /><path
     d="m 2234.1852,2325.9581 74.7983,-106.8548 74.7983,128.2257 -149.5966,-21.3709"
     inkscape:connector-curvature="0"
     id="path3146"
     style="fill:#000000;fill-opacity:1;fill-rule:nonzero;stroke:#000000;stroke-opacity:1" /><path
     d="m 2253.9798,2126.3157 -62.0409,-113.7417 149.9323,0 -87.8914,113.7417"
     inkscape:connector-curvature="0"
     id="path3148"
     style="fill:#000000;fill-opacity:1;fill-rule:nonzero;stroke:#000000;stroke-opacity:1" /><path
     d="m 2255.3894,1908.3636 97.563,-102.9832 43.3613,113.8235 -140.9243,-10.8403"
     inkscape:connector-curvature="0"
     id="path3150"
     style="fill:#000000;fill-opacity:1;fill-rule:nonzero;stroke:#000000;stroke-opacity:1" /><path
     style="fill:#000000;fill-opacity:1;fill-rule:nonzero;stroke:#000000;stroke-opacity:1"
     id="path3152"
     inkscape:connector-curvature="0"
     d="m 1844.8701,1708.3894 51.7798,-139.8054 88.0257,93.2036 -139.8055,46.6018" /><path
     style="fill:#000000;fill-opacity:1;fill-rule:nonzero;stroke:#000000;stroke-opacity:1"
     id="path3154"
     inkscape:connector-curvature="0"
     d="m 1798.0856,1553.4584 20.8243,-145.7706 98.9158,104.1218 -119.7401,41.6488" /><path
     style="fill:#000000;fill-opacity:1;fill-rule:nonzero;stroke:#000000;stroke-opacity:1"
     id="path3156"
     inkscape:connector-curvature="0"
     d="m 1837.9526,1362.5374 102.791,-102.791 46.2559,118.2096 -149.0469,-15.4186" /><path
     style="fill:#000000;fill-opacity:1;fill-rule:nonzero;stroke:#000000;stroke-opacity:1"
     id="path3158"
     inkscape:connector-curvature="0"
     d="m 2008.3124,1661.2356 143.9463,46.2684 -92.5369,87.396 -51.4094,-133.6644" /><path
     style="fill:#000000;fill-opacity:1;fill-rule:nonzero;stroke:#000000;stroke-opacity:1"
     id="path3160"
     inkscape:connector-curvature="0"
     d="m 2027.6091,1597.1564 74.4347,-116.9688 74.4347,101.0185 -148.8694,15.9503" /><path
     style="fill:#000000;fill-opacity:1;fill-rule:nonzero;stroke:#000000;stroke-opacity:1"
     id="path3162"
     inkscape:connector-curvature="0"
     d="m 2073.8278,1374.6914 -10.4647,-146.5053 115.1113,52.3234 -104.6466,94.1819" /><path
     style="fill:#000000;fill-opacity:1;fill-rule:nonzero;stroke:#000000;stroke-opacity:1"
     id="path3164"
     inkscape:connector-curvature="0"
     d="m 2234.1852,1722.7725 74.7983,-106.8548 74.7983,128.2257 -149.5966,-21.3709" /><path
     style="fill:#000000;fill-opacity:1;fill-rule:nonzero;stroke:#000000;stroke-opacity:1"
     id="path3166"
     inkscape:connector-curvature="0"
     d="m 2253.9798,1523.1302 -62.0409,-113.7418 149.9323,0 -87.8914,113.7418" /><path
     style="fill:#000000;fill-opacity:1;fill-rule:nonzero;stroke:#000000;stroke-opacity:1"
     id="path3168"
     inkscape:connector-curvature="0"
     d="m 2255.3894,1305.178 97.563,-102.9832 43.3613,113.8235 -140.9243,-10.8403" /><path
     style="fill:#000000;fill-opacity:1;fill-rule:nonzero;stroke:#000000;stroke-opacity:1"
     id="path3170"
     inkscape:connector-curvature="0"
     d="M 48.699,1110.4894 100.4788,970.684 188.50445,1063.8876 48.699,1110.4894" /><path
     style="fill:#000000;fill-opacity:1;fill-rule:nonzero;stroke:#000000;stroke-opacity:1"
     id="path3172"
     inkscape:connector-curvature="0"
     d="M 1.9144431,955.5584 22.73882,809.7878 121.6546,913.9096 1.9144431,955.5584" /><path
     style="fill:#000000;fill-opacity:1;fill-rule:nonzero;stroke:#000000;stroke-opacity:1"
     id="path3174"
     inkscape:connector-curvature="0"
     d="M 41.781519,764.6374 144.57248,661.8464 190.8284,780.056 41.781519,764.6374" /><path
     style="fill:#000000;fill-opacity:1;fill-rule:nonzero;stroke:#000000;stroke-opacity:1"
     id="path3176"
     inkscape:connector-curvature="0"
     d="M 212.1413,1063.3356 356.08759,1109.604 263.55069,1197 212.1413,1063.3356" /><path
     style="fill:#000000;fill-opacity:1;fill-rule:nonzero;stroke:#000000;stroke-opacity:1"
     id="path3178"
     inkscape:connector-curvature="0"
     d="M 231.438,999.2564 305.87268,882.2876 380.30736,983.3061 231.438,999.2564" /><path
     style="fill:#000000;fill-opacity:1;fill-rule:nonzero;stroke:#000000;stroke-opacity:1"
     id="path3180"
     inkscape:connector-curvature="0"
     d="M 277.65667,776.7914 267.192,630.2861 382.30329,682.6095 277.65667,776.7914" /><path
     style="fill:#000000;fill-opacity:1;fill-rule:nonzero;stroke:#000000;stroke-opacity:1"
     id="path3182"
     inkscape:connector-curvature="0"
     d="m 438.014,1124.8725 74.79831,-106.8548 74.79833,128.2257 -149.59664,-21.3709" /><path
     style="fill:#000000;fill-opacity:1;fill-rule:nonzero;stroke:#000000;stroke-opacity:1"
     id="path3184"
     inkscape:connector-curvature="0"
     d="m 457.80868,925.2301 -62.04093,-113.7417 149.93227,0 -87.89134,113.7417" /><path
     style="fill:#000000;fill-opacity:1;fill-rule:nonzero;stroke:#000000;stroke-opacity:1"
     id="path3186"
     inkscape:connector-curvature="0"
     d="M 459.21823,707.278 556.78125,604.2948 600.14259,718.1183 459.21823,707.278" /><path
     d="M 48.699,507.3038 100.4788,367.4984 188.50445,460.702 48.699,507.3038"
     inkscape:connector-curvature="0"
     id="path3188"
     style="fill:#000000;fill-opacity:1;fill-rule:nonzero;stroke:#000000;stroke-opacity:1" /><path
     d="M 1.9144431,352.3728 22.73882,206.6022 121.6546,310.724 1.9144431,352.3728"
     inkscape:connector-curvature="0"
     id="path3190"
     style="fill:#000000;fill-opacity:1;fill-rule:nonzero;stroke:#000000;stroke-opacity:1" /><path
     d="M 41.781519,161.4518 144.57248,58.6608 190.8284,176.8704 41.781519,161.4518"
     inkscape:connector-curvature="0"
     id="path3192"
     style="fill:#000000;fill-opacity:1;fill-rule:nonzero;stroke:#000000;stroke-opacity:1" /><path
     d="m 212.1413,460.15 143.94629,46.2684 -92.5369,87.396 L 212.1413,460.15"
     inkscape:connector-curvature="0"
     id="path3194"
     style="fill:#000000;fill-opacity:1;fill-rule:nonzero;stroke:#000000;stroke-opacity:1" /><path
     d="M 231.438,396.0708 305.87268,279.102 380.30736,380.1205 231.438,396.0708"
     inkscape:connector-curvature="0"
     id="path3196"
     style="fill:#000000;fill-opacity:1;fill-rule:nonzero;stroke:#000000;stroke-opacity:1" /><path
     d="M 277.65667,173.6058 267.192,27.1005 382.30329,79.4239 277.65667,173.6058"
     inkscape:connector-curvature="0"
     id="path3198"
     style="fill:#000000;fill-opacity:1;fill-rule:nonzero;stroke:#000000;stroke-opacity:1" /><path
     d="M 438.014,521.6869 512.81231,414.8321 587.61064,543.0578 438.014,521.6869"
     inkscape:connector-curvature="0"
     id="path3200"
     style="fill:#000000;fill-opacity:1;fill-rule:nonzero;stroke:#000000;stroke-opacity:1" /><path
     d="m 457.80868,322.0446 -62.04093,-113.7418 149.93227,0 -87.89134,113.7418"
     inkscape:connector-curvature="0"
     id="path3202"
     style="fill:#000000;fill-opacity:1;fill-rule:nonzero;stroke:#000000;stroke-opacity:1" /><path
     d="M 459.21823,104.0924 556.78125,1.1092 600.14259,114.9327 459.21823,104.0924"
     inkscape:connector-curvature="0"
     id="path3204"
     style="fill:#000000;fill-opacity:1;fill-rule:nonzero;stroke:#000000;stroke-opacity:1" /><path
     d="m 646.78456,1110.4894 51.7798,-139.8054 88.02565,93.2036 -139.80545,46.6018"
     inkscape:connector-curvature="0"
     id="path3206"
     style="fill:#000000;fill-opacity:1;fill-rule:nonzero;stroke:#000000;stroke-opacity:1" /><path
     d="M 600,955.5584 620.82438,809.7878 719.74016,913.9096 600,955.5584"
     inkscape:connector-curvature="0"
     id="path3208"
     style="fill:#000000;fill-opacity:1;fill-rule:nonzero;stroke:#000000;stroke-opacity:1" /><path
     d="M 639.86708,764.6374 742.65804,661.8464 788.91396,780.056 639.86708,764.6374"
     inkscape:connector-curvature="0"
     id="path3210"
     style="fill:#000000;fill-opacity:1;fill-rule:nonzero;stroke:#000000;stroke-opacity:1" /><path
     d="M 810.22686,1063.3356 954.17315,1109.604 861.63625,1197 810.22686,1063.3356"
     inkscape:connector-curvature="0"
     id="path3212"
     style="fill:#000000;fill-opacity:1;fill-rule:nonzero;stroke:#000000;stroke-opacity:1" /><path
     d="m 829.52356,999.2564 74.43468,-116.9688 74.43468,101.0185 -148.86936,15.9503"
     inkscape:connector-curvature="0"
     id="path3214"
     style="fill:#000000;fill-opacity:1;fill-rule:nonzero;stroke:#000000;stroke-opacity:1" /><path
     d="M 875.74223,776.7914 865.27756,630.2861 980.38885,682.6095 875.74223,776.7914"
     inkscape:connector-curvature="0"
     id="path3216"
     style="fill:#000000;fill-opacity:1;fill-rule:nonzero;stroke:#000000;stroke-opacity:1" /><path
     d="m 1036.0996,1124.8725 74.7983,-106.8548 74.7983,128.2257 -149.5966,-21.3709"
     inkscape:connector-curvature="0"
     id="path3218"
     style="fill:#000000;fill-opacity:1;fill-rule:nonzero;stroke:#000000;stroke-opacity:1" /><path
     d="m 1055.8942,925.2301 -62.04089,-113.7417 149.93229,0 -87.8914,113.7417"
     inkscape:connector-curvature="0"
     id="path3220"
     style="fill:#000000;fill-opacity:1;fill-rule:nonzero;stroke:#000000;stroke-opacity:1" /><path
     d="m 1057.3038,707.278 97.563,-102.9832 43.3613,113.8235 -140.9243,-10.8403"
     inkscape:connector-curvature="0"
     id="path3222"
     style="fill:#000000;fill-opacity:1;fill-rule:nonzero;stroke:#000000;stroke-opacity:1" /><path
     style="fill:#000000;fill-opacity:1;fill-rule:nonzero;stroke:#000000;stroke-opacity:1"
     id="path3224"
     inkscape:connector-curvature="0"
     d="m 646.78456,507.3038 51.7798,-139.8054 88.02565,93.2036 -139.80545,46.6018" /><path
     style="fill:#000000;fill-opacity:1;fill-rule:nonzero;stroke:#000000;stroke-opacity:1"
     id="path3226"
     inkscape:connector-curvature="0"
     d="M 600,352.3728 620.82438,206.6022 719.74016,310.724 600,352.3728" /><path
     style="fill:#000000;fill-opacity:1;fill-rule:nonzero;stroke:#000000;stroke-opacity:1"
     id="path3228"
     inkscape:connector-curvature="0"
     d="M 639.86708,161.4518 742.65804,58.6608 788.91396,176.8704 639.86708,161.4518" /><path
     style="fill:#000000;fill-opacity:1;fill-rule:nonzero;stroke:#000000;stroke-opacity:1"
     id="path3230"
     inkscape:connector-curvature="0"
     d="m 810.22686,460.15 143.94629,46.2684 -92.5369,87.396 L 810.22686,460.15" /><path
     style="fill:#000000;fill-opacity:1;fill-rule:nonzero;stroke:#000000;stroke-opacity:1"
     id="path3232"
     inkscape:connector-curvature="0"
     d="M 829.52356,396.0708 903.95824,279.102 978.39292,380.1205 829.52356,396.0708" /><path
     style="fill:#000000;fill-opacity:1;fill-rule:nonzero;stroke:#000000;stroke-opacity:1"
     id="path3234"
     inkscape:connector-curvature="0"
     d="M 875.74223,173.6058 865.27756,27.1005 980.38885,79.4239 875.74223,173.6058" /><path
     style="fill:#000000;fill-opacity:1;fill-rule:nonzero;stroke:#000000;stroke-opacity:1"
     id="path3236"
     inkscape:connector-curvature="0"
     d="m 1036.0996,521.6869 74.7983,-106.8548 74.7983,128.2257 -149.5966,-21.3709" /><path
     style="fill:#000000;fill-opacity:1;fill-rule:nonzero;stroke:#000000;stroke-opacity:1"
     id="path3238"
     inkscape:connector-curvature="0"
     d="m 1055.8942,322.0446 -62.04089,-113.7418 149.93229,0 -87.8914,113.7418" /><path
     style="fill:#000000;fill-opacity:1;fill-rule:nonzero;stroke:#000000;stroke-opacity:1"
     id="path3240"
     inkscape:connector-curvature="0"
     d="m 1057.3038,104.0924 97.563,-102.9832 43.3613,113.8235 -140.9243,-10.8403" /><path
     d="m 1246.7846,1110.4894 51.7798,-139.8054 88.0256,93.2036 -139.8054,46.6018"
     inkscape:connector-curvature="0"
     id="path3242"
     style="fill:#000000;fill-opacity:1;fill-rule:nonzero;stroke:#000000;stroke-opacity:1" /><path
     d="m 1200,955.5584 20.8244,-145.7706 98.9158,104.1218 L 1200,955.5584"
     inkscape:connector-curvature="0"
     id="path3244"
     style="fill:#000000;fill-opacity:1;fill-rule:nonzero;stroke:#000000;stroke-opacity:1" /><path
     d="m 1239.8671,764.6374 102.7909,-102.791 46.256,118.2096 -149.0469,-15.4186"
     inkscape:connector-curvature="0"
     id="path3246"
     style="fill:#000000;fill-opacity:1;fill-rule:nonzero;stroke:#000000;stroke-opacity:1" /><path
     d="m 1410.2269,1063.3356 143.9462,46.2684 -92.5369,87.396 -51.4093,-133.6644"
     inkscape:connector-curvature="0"
     id="path3248"
     style="fill:#000000;fill-opacity:1;fill-rule:nonzero;stroke:#000000;stroke-opacity:1" /><path
     d="m 1429.5236,999.2564 74.4346,-116.9688 74.4347,101.0185 -148.8693,15.9503"
     inkscape:connector-curvature="0"
     id="path3250"
     style="fill:#000000;fill-opacity:1;fill-rule:nonzero;stroke:#000000;stroke-opacity:1" /><path
     d="m 1475.7422,776.7914 -10.4646,-146.5053 115.1112,52.3234 -104.6466,94.1819"
     inkscape:connector-curvature="0"
     id="path3252"
     style="fill:#000000;fill-opacity:1;fill-rule:nonzero;stroke:#000000;stroke-opacity:1" /><path
     d="m 1636.0996,1124.8725 74.7983,-106.8548 74.7983,128.2257 -149.5966,-21.3709"
     inkscape:connector-curvature="0"
     id="path3254"
     style="fill:#000000;fill-opacity:1;fill-rule:nonzero;stroke:#000000;stroke-opacity:1" /><path
     d="m 1655.8942,925.2301 -62.0409,-113.7417 149.9323,0 -87.8914,113.7417"
     inkscape:connector-curvature="0"
     id="path3256"
     style="fill:#000000;fill-opacity:1;fill-rule:nonzero;stroke:#000000;stroke-opacity:1" /><path
     d="m 1657.3038,707.278 97.563,-102.9832 43.3613,113.8235 -140.9243,-10.8403"
     inkscape:connector-curvature="0"
     id="path3258"
     style="fill:#000000;fill-opacity:1;fill-rule:nonzero;stroke:#000000;stroke-opacity:1" /><path
     style="fill:#000000;fill-opacity:1;fill-rule:nonzero;stroke:#000000;stroke-opacity:1"
     id="path3260"
     inkscape:connector-curvature="0"
     d="m 1246.7846,507.3038 51.7798,-139.8054 88.0256,93.2036 -139.8054,46.6018" /><path
     style="fill:#000000;fill-opacity:1;fill-rule:nonzero;stroke:#000000;stroke-opacity:1"
     id="path3262"
     inkscape:connector-curvature="0"
     d="M 1200,352.3728 1220.8244,206.6022 1319.7402,310.724 1200,352.3728" /><path
     style="fill:#000000;fill-opacity:1;fill-rule:nonzero;stroke:#000000;stroke-opacity:1"
     id="path3264"
     inkscape:connector-curvature="0"
     d="m 1239.8671,161.4518 102.7909,-102.791 46.256,118.2096 -149.0469,-15.4186" /><path
     style="fill:#000000;fill-opacity:1;fill-rule:nonzero;stroke:#000000;stroke-opacity:1"
     id="path3266"
     inkscape:connector-curvature="0"
     d="m 1410.2269,460.15 143.9462,46.2684 -92.5369,87.396 -51.4093,-133.6644" /><path
     style="fill:#000000;fill-opacity:1;fill-rule:nonzero;stroke:#000000;stroke-opacity:1"
     id="path3268"
     inkscape:connector-curvature="0"
     d="m 1429.5236,396.0708 74.4346,-116.9688 74.4347,101.0185 -148.8693,15.9503" /><path
     style="fill:#000000;fill-opacity:1;fill-rule:nonzero;stroke:#000000;stroke-opacity:1"
     id="path3270"
     inkscape:connector-curvature="0"
     d="m 1475.7422,173.6058 -10.4646,-146.5053 115.1112,52.3234 -104.6466,94.1819" /><path
     style="fill:#000000;fill-opacity:1;fill-rule:nonzero;stroke:#000000;stroke-opacity:1"
     id="path3272"
     inkscape:connector-curvature="0"
     d="m 1636.0996,521.6869 74.7983,-106.8548 74.7983,128.2257 -149.5966,-21.3709" /><path
     style="fill:#000000;fill-opacity:1;fill-rule:nonzero;stroke:#000000;stroke-opacity:1"
     id="path3274"
     inkscape:connector-curvature="0"
     d="m 1655.8942,322.0446 -62.0409,-113.7418 149.9323,0 -87.8914,113.7418" /><path
     style="fill:#000000;fill-opacity:1;fill-rule:nonzero;stroke:#000000;stroke-opacity:1"
     id="path3276"
     inkscape:connector-curvature="0"
     d="m 1657.3038,104.0924 97.563,-102.9832 43.3613,113.8235 -140.9243,-10.8403" /><path
     style="fill:#000000;fill-opacity:1;fill-rule:nonzero;stroke:#000000;stroke-opacity:1"
     id="path3278"
     inkscape:connector-curvature="0"
     d="m 1844.8701,1110.4894 51.7798,-139.8054 88.0257,93.2036 -139.8055,46.6018" /><path
     style="fill:#000000;fill-opacity:1;fill-rule:nonzero;stroke:#000000;stroke-opacity:1"
     id="path3280"
     inkscape:connector-curvature="0"
     d="m 1798.0856,955.5584 20.8243,-145.7706 98.9158,104.1218 -119.7401,41.6488" /><path
     style="fill:#000000;fill-opacity:1;fill-rule:nonzero;stroke:#000000;stroke-opacity:1"
     id="path3282"
     inkscape:connector-curvature="0"
     d="m 1837.9526,764.6374 102.791,-102.791 46.2559,118.2096 -149.0469,-15.4186" /><path
     style="fill:#000000;fill-opacity:1;fill-rule:nonzero;stroke:#000000;stroke-opacity:1"
     id="path3284"
     inkscape:connector-curvature="0"
     d="m 2008.3124,1063.3356 143.9463,46.2684 -92.5369,87.396 -51.4094,-133.6644" /><path
     style="fill:#000000;fill-opacity:1;fill-rule:nonzero;stroke:#000000;stroke-opacity:1"
     id="path3286"
     inkscape:connector-curvature="0"
     d="m 2027.6091,999.2564 74.4347,-116.9688 74.4347,101.0185 -148.8694,15.9503" /><path
     style="fill:#000000;fill-opacity:1;fill-rule:nonzero;stroke:#000000;stroke-opacity:1"
     id="path3288"
     inkscape:connector-curvature="0"
     d="m 2073.8278,776.7914 -10.4647,-146.5053 115.1113,52.3234 -104.6466,94.1819" /><path
     style="fill:#000000;fill-opacity:1;fill-rule:nonzero;stroke:#000000;stroke-opacity:1"
     id="path3290"
     inkscape:connector-curvature="0"
     d="m 2234.1852,1124.8725 74.7983,-106.8548 74.7983,128.2257 -149.5966,-21.3709" /><path
     style="fill:#000000;fill-opacity:1;fill-rule:nonzero;stroke:#000000;stroke-opacity:1"
     id="path3292"
     inkscape:connector-curvature="0"
     d="m 2253.9798,925.2301 -62.0409,-113.7417 149.9323,0 -87.8914,113.7417" /><path
     style="fill:#000000;fill-opacity:1;fill-rule:nonzero;stroke:#000000;stroke-opacity:1"
     id="path3294"
     inkscape:connector-curvature="0"
     d="m 2255.3894,707.278 97.563,-102.9832 43.3613,113.8235 -140.9243,-10.8403" /><path
     d="m 1844.8701,507.3038 51.7798,-139.8054 88.0257,93.2036 -139.8055,46.6018"
     inkscape:connector-curvature="0"
     id="path3296"
     style="fill:#000000;fill-opacity:1;fill-rule:nonzero;stroke:#000000;stroke-opacity:1" /><path
     d="m 1798.0856,352.3728 20.8243,-145.7706 98.9158,104.1218 -119.7401,41.6488"
     inkscape:connector-curvature="0"
     id="path3298"
     style="fill:#000000;fill-opacity:1;fill-rule:nonzero;stroke:#000000;stroke-opacity:1" /><path
     d="m 1837.9526,161.4518 102.791,-102.791 46.2559,118.2096 -149.0469,-15.4186"
     inkscape:connector-curvature="0"
     id="path3300"
     style="fill:#000000;fill-opacity:1;fill-rule:nonzero;stroke:#000000;stroke-opacity:1" /><path
     d="m 2008.3124,460.15 143.9463,46.2684 -92.5369,87.396 -51.4094,-133.6644"
     inkscape:connector-curvature="0"
     id="path3302"
     style="fill:#000000;fill-opacity:1;fill-rule:nonzero;stroke:#000000;stroke-opacity:1" /><path
     d="m 2027.6091,396.0708 74.4347,-116.9688 74.4347,101.0185 -148.8694,15.9503"
     inkscape:connector-curvature="0"
     id="path3304"
     style="fill:#000000;fill-opacity:1;fill-rule:nonzero;stroke:#000000;stroke-opacity:1" /><path
     d="m 2073.8278,173.6058 -10.4647,-146.5053 115.1113,52.3234 -104.6466,94.1819"
     inkscape:connector-curvature="0"
     id="path3306"
     style="fill:#000000;fill-opacity:1;fill-rule:nonzero;stroke:#000000;stroke-opacity:1" /><path
     d="m 2234.1852,521.6869 74.7983,-106.8548 74.7983,128.2257 -149.5966,-21.3709"
     inkscape:connector-curvature="0"
     id="path3308"
     style="fill:#000000;fill-opacity:1;fill-rule:nonzero;stroke:#000000;stroke-opacity:1" /><path
     d="m 2253.9798,322.0446 -62.0409,-113.7418 149.9323,0 -87.8914,113.7418"
     inkscape:connector-curvature="0"
     id="path3310"
     style="fill:#000000;fill-opacity:1;fill-rule:nonzero;stroke:#000000;stroke-opacity:1" /><path
     d="m 2255.3894,104.0924 97.563,-102.9832 43.3613,113.8235 -140.9243,-10.8403"
     inkscape:connector-curvature="0"
     id="path3312"
     style="fill:#000000;fill-opacity:1;fill-rule:nonzero;stroke:#000000;stroke-opacity:1" /></svg>