<?xml version="1.0" encoding="UTF-8" standalone="no"?>
<!-- Created with Inkscape (http://www.inkscape.org/) -->

<svg
   xmlns:dc="http://purl.org/dc/elements/1.1/"
   xmlns:cc="http://creativecommons.org/ns#"
   xmlns:rdf="http://www.w3.org/1999/02/22-rdf-syntax-ns#"
   xmlns:svg="http://www.w3.org/2000/svg"
   xmlns="http://www.w3.org/2000/svg"
   xmlns:sodipodi="http://sodipodi.sourceforge.net/DTD/sodipodi-0.dtd"
   xmlns:inkscape="http://www.inkscape.org/namespaces/inkscape"
   version="1.1"
   width="481.25"
   height="720"
   id="svg2"
   xml:space="preserve"
   inkscape:version="0.48.4 r9939"
   sodipodi:docname="SVaPpoh.svg"><sodipodi:namedview
     pagecolor="#ffffff"
     bordercolor="#666666"
     borderopacity="1"
     objecttolerance="10"
     gridtolerance="10"
     guidetolerance="10"
     inkscape:pageopacity="0"
     inkscape:pageshadow="2"
     inkscape:window-width="1920"
     inkscape:window-height="1012"
     id="namedview11"
     showgrid="false"
     inkscape:zoom="0.47676768"
     inkscape:cx="276.25649"
     inkscape:cy="568.20645"
     inkscape:window-x="-8"
     inkscape:window-y="-8"
     inkscape:window-maximized="1"
     inkscape:current-layer="svg2" /><metadata
     id="metadata8"><rdf:RDF><cc:Work
         rdf:about=""><dc:format>image/svg+xml</dc:format><dc:type
           rdf:resource="http://purl.org/dc/dcmitype/StillImage" /></cc:Work></rdf:RDF></metadata><defs
     id="defs6" /><g
     id="g2992"
     transform="translate(0,-270)"><g
       id="g10"
       transform="matrix(1.25,0,0,-1.25,148.125,1064.375)"><g
         id="g12"
         transform="scale(0.1,0.1)"><path
           style="fill:none;stroke:#000000;stroke-width:250;stroke-linecap:butt;stroke-linejoin:miter;stroke-miterlimit:10;stroke-opacity:1;stroke-dasharray:none"
           id="path14"
           inkscape:connector-curvature="0"
           d="m -210,720 1860,0 m -930,1310 0,3690" /><path
           style="fill:none;stroke:#000000;stroke-width:200;stroke-linecap:butt;stroke-linejoin:miter;stroke-miterlimit:10;stroke-opacity:1;stroke-dasharray:none"
           id="path16"
           inkscape:connector-curvature="0"
           d="m -210,720 1860,0 M 720,2030 720,5720 0,4470 720,4470 0,3220 l 1440,0 -720,1250 720,0 -720,1250 m -600,-2350 1200,0 m -100,150 -1000,0 m 100,200 800,0 m -100,200 -600,0 m 150,200 300,0 m -750,500 1200,0 m -100,150 -1000,0 m 100,200 800,0 m -100,200 -600,0 m 150,200 300,0 m 430,-4650 0,750" /><path
           style="fill:none;stroke:#000000;stroke-width:200;stroke-linecap:butt;stroke-linejoin:miter;stroke-miterlimit:10;stroke-opacity:1;stroke-dasharray:none"
           id="path18"
           inkscape:connector-curvature="0"
           d="m 1300,1470 c 0,309.28 -250.72,560 -560,560 -309.277,0 -560,-250.72 -560,-560 l 0,-750" /><path
           style="fill:none;stroke:#000000;stroke-width:250;stroke-linecap:butt;stroke-linejoin:miter;stroke-miterlimit:10;stroke-opacity:1;stroke-dasharray:none"
           id="path20"
           inkscape:connector-curvature="0"
           d="m 2540,4420 c 0,994.11 -805.89,1800 -1800,1800 -994.109,0 -1800,-805.89 -1800,-1800 0,-994.11 805.891,-1800 1800,-1800 994.11,0 1800,805.89 1800,1800" /></g></g><rect
       transform="matrix(0.51163605,0.85920227,-0.55126042,0.83433324,0,0)"
       y="-59.425083"
       x="417.86127"
       height="17.859667"
       width="55.54887"
       id="rect2988"
       style="fill:#ffffff;fill-opacity:1;stroke:none" /><rect
       style="fill:#ffffff;fill-opacity:1;stroke:none"
       id="rect2990"
       width="55.54887"
       height="17.859667"
       x="417.21097"
       y="-66.7547"
       transform="matrix(0.51163605,0.85920227,-0.55126042,0.83433324,0,0)" /></g></svg>