<?xml version="1.0" encoding="UTF-8" standalone="no"?>
<!-- Created with Inkscape (http://www.inkscape.org/) -->

<svg
   xmlns:dc="http://purl.org/dc/elements/1.1/"
   xmlns:cc="http://creativecommons.org/ns#"
   xmlns:rdf="http://www.w3.org/1999/02/22-rdf-syntax-ns#"
   xmlns:svg="http://www.w3.org/2000/svg"
   xmlns="http://www.w3.org/2000/svg"
   xmlns:sodipodi="http://sodipodi.sourceforge.net/DTD/sodipodi-0.dtd"
   xmlns:inkscape="http://www.inkscape.org/namespaces/inkscape"
   width="1573.2283"
   height="1573.2283"
   id="svg2"
   version="1.1"
   inkscape:version="0.48.3.1 r9886"
   sodipodi:docname="Phko_ps.svg">
  <defs
     id="defs4" />
  <sodipodi:namedview
     id="base"
     pagecolor="#ffffff"
     bordercolor="#666666"
     borderopacity="1.0"
     inkscape:pageopacity="0.0"
     inkscape:pageshadow="2"
     inkscape:zoom="0.51931434"
     inkscape:cx="485.25524"
     inkscape:cy="786.61414"
     inkscape:document-units="px"
     inkscape:current-layer="layer1"
     showgrid="true"
     units="mm"
     inkscape:window-width="1920"
     inkscape:window-height="1134"
     inkscape:window-x="-8"
     inkscape:window-y="-8"
     inkscape:window-maximized="1">
    <inkscape:grid
       type="xygrid"
       id="grid2985"
       empspacing="5"
       visible="true"
       enabled="true"
       snapvisiblegridlinesonly="true"
       units="mm"
       spacingx="10mm"
       spacingy="10mm" />
  </sodipodi:namedview>
  <metadata
     id="metadata7">
    <rdf:RDF>
      <cc:Work
         rdf:about="">
        <dc:format>image/svg+xml</dc:format>
        <dc:type
           rdf:resource="http://purl.org/dc/dcmitype/StillImage" />
        <dc:title></dc:title>
      </cc:Work>
    </rdf:RDF>
  </metadata>
  <g
     inkscape:label="Layer 1"
     inkscape:groupmode="layer"
     id="layer1"
     transform="translate(0,520.86612)">
    <path
       sodipodi:type="arc"
       style="fill:#918a8c;fill-opacity:1;stroke:#918a8c;stroke-width:0.70866143999999998;stroke-linecap:square;stroke-linejoin:miter;stroke-miterlimit:4;stroke-opacity:1;stroke-dasharray:none;stroke-dashoffset:0"
       id="path2987"
       sodipodi:cx="389.76379"
       sodipodi:cy="368.50388"
       sodipodi:rx="35.433071"
       sodipodi:ry="35.433071"
       d="m 425.19687,368.50388 c 0,19.56914 -15.86393,35.43307 -35.43308,35.43307 -19.56914,0 -35.43307,-15.86393 -35.43307,-35.43307 0,-19.56915 15.86393,-35.43308 35.43307,-35.43308 19.56915,0 35.43308,15.86393 35.43308,35.43308 z"
       transform="matrix(1.980198,0,0,1.980198,-672.59689,28.557026)" />
    <path
       transform="matrix(1.980198,0,0,1.980198,-279.2898,124.22632)"
       d="m 425.19687,368.50388 c 0,19.56914 -15.86393,35.43307 -35.43308,35.43307 -19.56914,0 -35.43307,-15.86393 -35.43307,-35.43307 0,-19.56915 15.86393,-35.43308 35.43307,-35.43308 19.56915,0 35.43308,15.86393 35.43308,35.43308 z"
       sodipodi:ry="35.433071"
       sodipodi:rx="35.433071"
       sodipodi:cy="368.50388"
       sodipodi:cx="389.76379"
       id="path2989"
       style="fill:#918a8c;fill-opacity:1;stroke:#918a8c;stroke-width:0.70866143999999998;stroke-linecap:square;stroke-linejoin:miter;stroke-miterlimit:4;stroke-opacity:1;stroke-dasharray:none;stroke-dashoffset:0"
       sodipodi:type="arc" />
    <path
       sodipodi:type="arc"
       style="fill:#918a8c;fill-opacity:1;stroke:#918a8c;stroke-width:0.70866143999999998;stroke-linecap:square;stroke-linejoin:miter;stroke-miterlimit:4;stroke-opacity:1;stroke-dasharray:none;stroke-dashoffset:0"
       id="path2991"
       sodipodi:cx="389.76379"
       sodipodi:cy="368.50388"
       sodipodi:rx="35.433071"
       sodipodi:ry="35.433071"
       d="m 425.19687,368.50388 c 0,19.56914 -15.86393,35.43307 -35.43308,35.43307 -19.56914,0 -35.43307,-15.86393 -35.43307,-35.43307 0,-19.56915 15.86393,-35.43308 35.43307,-35.43308 19.56915,0 35.43308,15.86393 35.43308,35.43308 z"
       transform="matrix(1.980198,0,0,1.980198,114.01729,223.43892)" />
    <path
       transform="matrix(1.980198,0,0,1.980198,507.32437,124.22632)"
       d="m 425.19687,368.50388 c 0,19.56914 -15.86393,35.43307 -35.43308,35.43307 -19.56914,0 -35.43307,-15.86393 -35.43307,-35.43307 0,-19.56915 15.86393,-35.43308 35.43307,-35.43308 19.56915,0 35.43308,15.86393 35.43308,35.43308 z"
       sodipodi:ry="35.433071"
       sodipodi:rx="35.433071"
       sodipodi:cy="368.50388"
       sodipodi:cx="389.76379"
       id="path2993"
       style="fill:#918a8c;fill-opacity:1;stroke:#918a8c;stroke-width:0.70866143999999998;stroke-linecap:square;stroke-linejoin:miter;stroke-miterlimit:4;stroke-opacity:1;stroke-dasharray:none;stroke-dashoffset:0"
       sodipodi:type="arc" />
    <path
       sodipodi:type="arc"
       style="fill:#918a8c;fill-opacity:1;stroke:#918a8c;stroke-width:0.70866143999999998;stroke-linecap:square;stroke-linejoin:miter;stroke-miterlimit:4;stroke-opacity:1;stroke-dasharray:none;stroke-dashoffset:0"
       id="path2995"
       sodipodi:cx="389.76379"
       sodipodi:cy="368.50388"
       sodipodi:rx="35.433071"
       sodipodi:ry="35.433071"
       d="m 425.19687,368.50388 c 0,19.56914 -15.86393,35.43307 -35.43308,35.43307 -19.56914,0 -35.43307,-15.86393 -35.43307,-35.43307 0,-19.56915 15.86393,-35.43308 35.43307,-35.43308 19.56915,0 35.43308,15.86393 35.43308,35.43308 z"
       transform="matrix(1.980198,0,0,1.980198,-477.715,-364.75006)" />
    <path
       transform="matrix(1.980198,0,0,1.980198,-84.407911,-169.86817)"
       d="m 425.19687,368.50388 c 0,19.56914 -15.86393,35.43307 -35.43308,35.43307 -19.56914,0 -35.43307,-15.86393 -35.43307,-35.43307 0,-19.56915 15.86393,-35.43308 35.43307,-35.43308 19.56915,0 35.43308,15.86393 35.43308,35.43308 z"
       sodipodi:ry="35.433071"
       sodipodi:rx="35.433071"
       sodipodi:cy="368.50388"
       sodipodi:cx="389.76379"
       id="path2997"
       style="fill:#918a8c;fill-opacity:1;stroke:#918a8c;stroke-width:0.70866143999999998;stroke-linecap:square;stroke-linejoin:miter;stroke-miterlimit:4;stroke-opacity:1;stroke-dasharray:none;stroke-dashoffset:0"
       sodipodi:type="arc" />
    <path
       sodipodi:type="arc"
       style="fill:#918a8c;fill-opacity:1;stroke:#918a8c;stroke-width:0.70866143999999998;stroke-linecap:square;stroke-linejoin:miter;stroke-miterlimit:4;stroke-opacity:1;stroke-dasharray:none;stroke-dashoffset:0"
       id="path2999"
       sodipodi:cx="389.76379"
       sodipodi:cy="368.50388"
       sodipodi:rx="35.433071"
       sodipodi:ry="35.433071"
       d="m 425.19687,368.50388 c 0,19.56914 -15.86393,35.43307 -35.43308,35.43307 -19.56914,0 -35.43307,-15.86393 -35.43307,-35.43307 0,-19.56915 15.86393,-35.43308 35.43307,-35.43308 19.56915,0 35.43308,15.86393 35.43308,35.43308 z"
       transform="matrix(1.980198,0,0,1.980198,213.22988,-269.08077)" />
    <path
       transform="matrix(1.980198,0,0,1.980198,705.74957,-269.08077)"
       d="m 425.19687,368.50388 c 0,19.56914 -15.86393,35.43307 -35.43308,35.43307 -19.56914,0 -35.43307,-15.86393 -35.43307,-35.43307 0,-19.56915 15.86393,-35.43308 35.43307,-35.43308 19.56915,0 35.43308,15.86393 35.43308,35.43308 z"
       sodipodi:ry="35.433071"
       sodipodi:rx="35.433071"
       sodipodi:cy="368.50388"
       sodipodi:cx="389.76379"
       id="path3001"
       style="fill:#918a8c;fill-opacity:1;stroke:#918a8c;stroke-width:0.70866143999999998;stroke-linecap:square;stroke-linejoin:miter;stroke-miterlimit:4;stroke-opacity:1;stroke-dasharray:none;stroke-dashoffset:0"
       sodipodi:type="arc" />
    <path
       sodipodi:type="arc"
       style="fill:#918a8c;fill-opacity:1;stroke:#918a8c;stroke-width:0.70866143999999998;stroke-linecap:square;stroke-linejoin:miter;stroke-miterlimit:4;stroke-opacity:1;stroke-dasharray:none;stroke-dashoffset:0"
       id="path3003"
       sodipodi:cx="389.76379"
       sodipodi:cy="368.50388"
       sodipodi:rx="35.433071"
       sodipodi:ry="35.433071"
       d="m 425.19687,368.50388 c 0,19.56914 -15.86393,35.43307 -35.43308,35.43307 -19.56914,0 -35.43307,-15.86393 -35.43307,-35.43307 0,-19.56915 15.86393,-35.43308 35.43307,-35.43308 19.56915,0 35.43308,15.86393 35.43308,35.43308 z"
       transform="matrix(1.980198,0,0,1.980198,-672.59689,-662.38786)" />
    <path
       transform="matrix(1.980198,0,0,1.980198,-180.0772,-662.38786)"
       d="m 425.19687,368.50388 c 0,19.56914 -15.86393,35.43307 -35.43308,35.43307 -19.56914,0 -35.43307,-15.86393 -35.43307,-35.43307 0,-19.56915 15.86393,-35.43308 35.43307,-35.43308 19.56915,0 35.43308,15.86393 35.43308,35.43308 z"
       sodipodi:ry="35.433071"
       sodipodi:rx="35.433071"
       sodipodi:cy="368.50388"
       sodipodi:cx="389.76379"
       id="path3005"
       style="fill:#918a8c;fill-opacity:1;stroke:#918a8c;stroke-width:0.70866143999999998;stroke-linecap:square;stroke-linejoin:miter;stroke-miterlimit:4;stroke-opacity:1;stroke-dasharray:none;stroke-dashoffset:0"
       sodipodi:type="arc" />
    <path
       sodipodi:type="arc"
       style="fill:#918a8c;fill-opacity:1;stroke:#918a8c;stroke-width:0.70866143999999998;stroke-linecap:square;stroke-linejoin:miter;stroke-miterlimit:4;stroke-opacity:1;stroke-dasharray:none;stroke-dashoffset:0"
       id="path3007"
       sodipodi:cx="389.76379"
       sodipodi:cy="368.50388"
       sodipodi:rx="35.433071"
       sodipodi:ry="35.433071"
       d="m 425.19687,368.50388 c 0,19.56914 -15.86393,35.43307 -35.43308,35.43307 -19.56914,0 -35.43307,-15.86393 -35.43307,-35.43307 0,-19.56915 15.86393,-35.43308 35.43307,-35.43308 19.56915,0 35.43308,15.86393 35.43308,35.43308 z"
       transform="matrix(1.980198,0,0,1.980198,114.01729,-761.60045)" />
    <path
       transform="matrix(1.980198,0,0,1.980198,507.32437,-563.17526)"
       d="m 425.19687,368.50388 c 0,19.56914 -15.86393,35.43307 -35.43308,35.43307 -19.56914,0 -35.43307,-15.86393 -35.43307,-35.43307 0,-19.56915 15.86393,-35.43308 35.43307,-35.43308 19.56915,0 35.43308,15.86393 35.43308,35.43308 z"
       sodipodi:ry="35.433071"
       sodipodi:rx="35.433071"
       sodipodi:cy="368.50388"
       sodipodi:cx="389.76379"
       id="path3009"
       style="fill:#918a8c;fill-opacity:1;stroke:#918a8c;stroke-width:0.70866143999999998;stroke-linecap:square;stroke-linejoin:miter;stroke-miterlimit:4;stroke-opacity:1;stroke-dasharray:none;stroke-dashoffset:0"
       sodipodi:type="arc" />
    <path
       sodipodi:type="arc"
       style="fill:#918a8c;fill-opacity:1;stroke:#918a8c;stroke-width:0.70866143999999998;stroke-linecap:square;stroke-linejoin:miter;stroke-miterlimit:4;stroke-opacity:1;stroke-dasharray:none;stroke-dashoffset:0"
       id="path3011"
       sodipodi:cx="389.76379"
       sodipodi:cy="368.50388"
       sodipodi:rx="35.433071"
       sodipodi:ry="35.433071"
       d="m 425.19687,368.50388 c 0,19.56914 -15.86393,35.43307 -35.43308,35.43307 -19.56914,0 -35.43307,-15.86393 -35.43307,-35.43307 0,-19.56915 15.86393,-35.43308 35.43307,-35.43308 19.56915,0 35.43308,15.86393 35.43308,35.43308 z"
       transform="matrix(1.980198,0,0,1.980198,-573.38429,-1154.9075)" />
    <path
       transform="matrix(1.980198,0,0,1.980198,-279.2898,-956.48234)"
       d="m 425.19687,368.50388 c 0,19.56914 -15.86393,35.43307 -35.43308,35.43307 -19.56914,0 -35.43307,-15.86393 -35.43307,-35.43307 0,-19.56915 15.86393,-35.43308 35.43307,-35.43308 19.56915,0 35.43308,15.86393 35.43308,35.43308 z"
       sodipodi:ry="35.433071"
       sodipodi:rx="35.433071"
       sodipodi:cy="368.50388"
       sodipodi:cx="389.76379"
       id="path3013"
       style="fill:#918a8c;fill-opacity:1;stroke:#918a8c;stroke-width:0.70866143999999998;stroke-linecap:square;stroke-linejoin:miter;stroke-miterlimit:4;stroke-opacity:1;stroke-dasharray:none;stroke-dashoffset:0"
       sodipodi:type="arc" />
    <path
       sodipodi:type="arc"
       style="fill:#918a8c;fill-opacity:1;stroke:#918a8c;stroke-width:0.70866143999999998;stroke-linecap:square;stroke-linejoin:miter;stroke-miterlimit:4;stroke-opacity:1;stroke-dasharray:none;stroke-dashoffset:0"
       id="path3015"
       sodipodi:cx="389.76379"
       sodipodi:cy="368.50388"
       sodipodi:rx="35.433071"
       sodipodi:ry="35.433071"
       d="m 425.19687,368.50388 c 0,19.56914 -15.86393,35.43307 -35.43308,35.43307 -19.56914,0 -35.43307,-15.86393 -35.43307,-35.43307 0,-19.56915 15.86393,-35.43308 35.43307,-35.43308 19.56915,0 35.43308,15.86393 35.43308,35.43308 z"
       transform="matrix(1.980198,0,0,1.980198,312.44248,-1055.6949)" />
    <path
       transform="matrix(1.980198,0,0,1.980198,606.53697,-956.48234)"
       d="m 425.19687,368.50388 c 0,19.56914 -15.86393,35.43307 -35.43308,35.43307 -19.56914,0 -35.43307,-15.86393 -35.43307,-35.43307 0,-19.56915 15.86393,-35.43308 35.43307,-35.43308 19.56915,0 35.43308,15.86393 35.43308,35.43308 z"
       sodipodi:ry="35.433071"
       sodipodi:rx="35.433071"
       sodipodi:cy="368.50388"
       sodipodi:cx="389.76379"
       id="path3017"
       style="fill:#918a8c;fill-opacity:1;stroke:#918a8c;stroke-width:0.70866143999999998;stroke-linecap:square;stroke-linejoin:miter;stroke-miterlimit:4;stroke-opacity:1;stroke-dasharray:none;stroke-dashoffset:0"
       sodipodi:type="arc" />
  </g>
</svg>
