<?xml version="1.0" encoding="UTF-8" standalone="no"?>
<!-- Created with Inkscape (http://www.inkscape.org/) -->

<svg
   xmlns:dc="http://purl.org/dc/elements/1.1/"
   xmlns:cc="http://creativecommons.org/ns#"
   xmlns:rdf="http://www.w3.org/1999/02/22-rdf-syntax-ns#"
   xmlns:svg="http://www.w3.org/2000/svg"
   xmlns="http://www.w3.org/2000/svg"
   xmlns:sodipodi="http://sodipodi.sourceforge.net/DTD/sodipodi-0.dtd"
   xmlns:inkscape="http://www.inkscape.org/namespaces/inkscape"
   version="1.1"
   width="281.25"
   height="515.63"
   id="svg2"
   xml:space="preserve"
   inkscape:version="0.48.3.1 r9886"
   sodipodi:docname="45000.svg"><sodipodi:namedview
     pagecolor="#ffffff"
     bordercolor="#666666"
     borderopacity="1"
     objecttolerance="10"
     gridtolerance="10"
     guidetolerance="10"
     inkscape:pageopacity="0"
     inkscape:pageshadow="2"
     inkscape:window-width="1920"
     inkscape:window-height="1134"
     id="namedview9"
     showgrid="false"
     inkscape:zoom="1.2657517"
     inkscape:cx="-187.08566"
     inkscape:cy="213.73356"
     inkscape:window-x="-8"
     inkscape:window-y="-8"
     inkscape:window-maximized="1"
     inkscape:current-layer="svg2" /><metadata
     id="metadata8"><rdf:RDF><cc:Work
         rdf:about=""><dc:format>image/svg+xml</dc:format><dc:type
           rdf:resource="http://purl.org/dc/dcmitype/StillImage" /><dc:title /></cc:Work></rdf:RDF></metadata><defs
     id="defs6" /><g
     transform="matrix(1.25,0,0,-1.25,50.625,465.00502)"
     id="g10"
     style="stroke:#918a8b;stroke-opacity:1"><g
       transform="scale(0.1,0.1)"
       id="g12"
       style="stroke:#918a8b;stroke-opacity:1"><path
         d="m 720,720 0,1000 C 167.719,1720 -280,1272.28 -280,720 -280,167.719 167.719,-280 720,-280 c 552.28,0 1000,447.719 1000,1000 0,552.28 -447.72,1000 -1000,1000 l 0,2000"
         inkscape:connector-curvature="0"
         id="path14"
         style="fill:none;stroke:#918a8b;stroke-width:250;stroke-linecap:butt;stroke-linejoin:miter;stroke-miterlimit:10;stroke-opacity:1;stroke-dasharray:none" /><path
         d="m 1600,720 c 0,486.01 -393.99,880 -880,880 -486.008,0 -880,-393.99 -880,-880 0,-486.008 393.992,-880 880,-880 486.01,0 880,393.992 880,880"
         inkscape:connector-curvature="0"
         id="path16"
         style="fill:#ffffff;fill-opacity:1;fill-rule:nonzero;stroke:#918a8b;stroke-opacity:1" /></g></g></svg>