<?xml version="1.0" encoding="UTF-8" standalone="no"?>
<!-- Created with Inkscape (http://www.inkscape.org/) -->

<svg
   xmlns:dc="http://purl.org/dc/elements/1.1/"
   xmlns:cc="http://creativecommons.org/ns#"
   xmlns:rdf="http://www.w3.org/1999/02/22-rdf-syntax-ns#"
   xmlns:svg="http://www.w3.org/2000/svg"
   xmlns="http://www.w3.org/2000/svg"
   xmlns:sodipodi="http://sodipodi.sourceforge.net/DTD/sodipodi-0.dtd"
   xmlns:inkscape="http://www.inkscape.org/namespaces/inkscape"
   version="1.1"
   width="250"
   height="250"
   id="svg2"
   xml:space="preserve"
   inkscape:version="0.48.3.1 r9886"
   sodipodi:docname="45300.svg"><sodipodi:namedview
     pagecolor="#ffffff"
     bordercolor="#666666"
     borderopacity="1"
     objecttolerance="10"
     gridtolerance="10"
     guidetolerance="10"
     inkscape:pageopacity="0"
     inkscape:pageshadow="2"
     inkscape:window-width="1920"
     inkscape:window-height="1134"
     id="namedview9"
     showgrid="false"
     inkscape:zoom="2"
     inkscape:cx="10.440522"
     inkscape:cy="151.33205"
     inkscape:window-x="-8"
     inkscape:window-y="-8"
     inkscape:window-maximized="1"
     inkscape:current-layer="g10" /><metadata
     id="metadata8"><rdf:RDF><cc:Work
         rdf:about=""><dc:format>image/svg+xml</dc:format><dc:type
           rdf:resource="http://purl.org/dc/dcmitype/StillImage" /><dc:title /></cc:Work></rdf:RDF></metadata><defs
     id="defs6" /><g
     transform="matrix(1.25,0,0,-1.25,35,215)"
     id="g10"
     style="stroke:none;stroke-opacity:1"><path
       style="fill:#918a8d;fill-opacity:1;fill-rule:nonzero;stroke:#918a8b;stroke-opacity:1"
       id="path14"
       inkscape:connector-curvature="0"
       d="m 72,72 100,0 C 172,127.228 127.228,172 72,172 16.7719,172 -28,127.228 -28,72 -28,16.7719 16.7719,-28 72,-28 c 55.228,0 100,44.7719 100,100" /><path
       style="fill:#ffffff;fill-opacity:1;fill-rule:nonzero;stroke:#918a8b;stroke-opacity:1"
       id="path16"
       inkscape:connector-curvature="0"
       d="m 132,72 c 0,33.137 -26.863,60 -60,60 -33.1367,0 -60,-26.863 -60,-60 0,-33.1367 26.8633,-60 60,-60 33.137,0 60,26.8633 60,60" /></g></svg>